<svg width="800" height="600" viewBox="0 0 800 600" xmlns="http://www.w3.org/2000/svg">
  <!-- Background -->
  <rect width="800" height="600" fill="#f8fafc"/>
  
  <!-- Browser Bar -->
  <rect width="800" height="45" fill="#e2e8f0"/>
  <circle cx="18" cy="22" r="6" fill="#ef4444"/>
  <circle cx="40" cy="22" r="6" fill="#f59e0b"/>
  <circle cx="62" cy="22" r="6" fill="#10b981"/>
  <rect x="90" y="12" width="500" height="22" rx="11" fill="white"/>
  <text x="110" y="28" font-size="11" fill="#6b7280">https://ma-boutique-prestashop.fr</text>
  
  <!-- PrestaShop Store -->
  <!-- Header -->
  <rect y="45" width="800" height="70" fill="white" stroke="#e2e8f0" stroke-width="1"/>
  <text x="40" y="85" font-size="24" font-weight="bold" fill="#7c3aed">MA BOUTIQUE</text>
  
  <!-- Navigation -->
  <text x="450" y="85" font-size="13" fill="#6b7280">Accueil</text>
  <text x="530" y="85" font-size="13" fill="#6b7280">Nouveautés</text>
  <text x="630" y="85" font-size="13" fill="#6b7280">Promotions</text>
  
  <!-- Search & Cart -->
  <rect x="580" y="65" width="120" height="30" rx="15" fill="#f1f5f9" stroke="#cbd5e1" stroke-width="1"/>
  <text x="600" y="85" font-size="11" fill="#9ca3af">Rechercher...</text>
  
  <rect x="720" y="65" width="50" height="30" rx="6" fill="#7c3aed"/>
  <text x="735" y="85" font-size="14" fill="white">🛒</text>
  <circle cx="760" cy="72" r="8" fill="#ec4899"/>
  <text x="760" y="76" font-size="9" fill="white" text-anchor="middle" font-weight="bold">3</text>
  
  <!-- Promo Banner -->
  <rect y="115" width="800" height="200" fill="#faf5ff"/>
  <defs>
    <linearGradient id="psPromo" x1="0%" y1="0%" x2="100%" y2="0%">
      <stop offset="0%" style="stop-color:#7c3aed"/>
      <stop offset="100%" style="stop-color:#a855f7"/>
    </linearGradient>
  </defs>
  <rect x="50" y="135" width="700" height="160" rx="12" fill="url(#psPromo)"/>
  <text x="400" y="195" font-size="36" font-weight="bold" fill="white" text-anchor="middle">-30% SUR TOUT LE SITE</text>
  <text x="400" y="230" font-size="16" fill="#f3e8ff" text-anchor="middle">Offre limitée - Code: WELCOME30</text>
  <rect x="330" y="245" width="140" height="40" rx="20" fill="white"/>
  <text x="400" y="272" font-size="14" font-weight="bold" fill="#7c3aed" text-anchor="middle">PROFITER</text>
  
  <!-- Categories -->
  <text x="40" y="350" font-size="20" font-weight="bold" fill="#1f2937">Catégories populaires</text>
  
  <!-- Category Cards -->
  <rect x="40" y="370" width="170" height="200" rx="10" fill="white" stroke="#e5e7eb" stroke-width="2"/>
  <rect x="50" y="380" width="150" height="120" rx="6" fill="#faf5ff"/>
  <text x="125" y="445" font-size="32" text-anchor="middle">👗</text>
  <text x="125" y="520" font-size="14" font-weight="bold" fill="#1f2937" text-anchor="middle">Vêtements</text>
  <text x="125" y="545" font-size="11" fill="#6b7280" text-anchor="middle">245 produits</text>
  
  <rect x="230" y="370" width="170" height="200" rx="10" fill="white" stroke="#e5e7eb" stroke-width="2"/>
  <rect x="240" y="380" width="150" height="120" rx="6" fill="#f0fdf4"/>
  <text x="315" y="445" font-size="32" text-anchor="middle">👟</text>
  <text x="315" y="520" font-size="14" font-weight="bold" fill="#1f2937" text-anchor="middle">Chaussures</text>
  <text x="315" y="545" font-size="11" fill="#6b7280" text-anchor="middle">128 produits</text>
  
  <rect x="420" y="370" width="170" height="200" rx="10" fill="white" stroke="#e5e7eb" stroke-width="2"/>
  <rect x="430" y="380" width="150" height="120" rx="6" fill="#fff7ed"/>
  <text x="505" y="445" font-size="32" text-anchor="middle">👜</text>
  <text x="505" y="520" font-size="14" font-weight="bold" fill="#1f2937" text-anchor="middle">Accessoires</text>
  <text x="505" y="545" font-size="11" fill="#6b7280" text-anchor="middle">89 produits</text>
  
  <rect x="610" y="370" width="170" height="200" rx="10" fill="white" stroke="#e5e7eb" stroke-width="2"/>
  <rect x="620" y="380" width="150" height="120" rx="6" fill="#fef2f2"/>
  <text x="695" y="445" font-size="32" text-anchor="middle">💎</text>
  <text x="695" y="520" font-size="14" font-weight="bold" fill="#1f2937" text-anchor="middle">Bijoux</text>
  <text x="695" y="545" font-size="11" fill="#6b7280" text-anchor="middle">67 produits</text>
</svg>

