<svg width="400" height="300" viewBox="0 0 400 300" xmlns="http://www.w3.org/2000/svg">
  <defs>
    <linearGradient id="grad1" x1="0%" y1="0%" x2="100%" y2="100%">
      <stop offset="0%" style="stop-color:#7c3aed;stop-opacity:1" />
      <stop offset="100%" style="stop-color:#a855f7;stop-opacity:1" />
    </linearGradient>
  </defs>
  <!-- Browser mockup -->
  <rect width="400" height="300" fill="#f8fafc"/>
  <rect width="400" height="40" fill="#e2e8f0"/>
  <circle cx="15" cy="20" r="5" fill="#ef4444"/>
  <circle cx="35" cy="20" r="5" fill="#f59e0b"/>
  <circle cx="55" cy="20" r="5" fill="#10b981"/>
  
  <!-- E-commerce UI -->
  <rect x="20" y="60" width="360" height="220" rx="8" fill="white" stroke="#e2e8f0" stroke-width="2"/>
  
  <!-- Header -->
  <rect x="30" y="70" width="100" height="20" rx="4" fill="url(#grad1)"/>
  <rect x="300" y="72" width="70" height="16" rx="4" fill="#e2e8f0"/>
  
  <!-- Product grid -->
  <rect x="30" y="110" width="160" height="120" rx="6" fill="#f1f5f9"/>
  <rect x="30" y="240" width="70" height="25" rx="4" fill="url(#grad1)"/>
  
  <rect x="210" y="110" width="160" height="120" rx="6" fill="#f1f5f9"/>
  <rect x="210" y="240" width="70" height="25" rx="4" fill="url(#grad1)"/>
  
  <!-- Cart icon -->
  <path d="M 330 75 L 335 70 L 360 70 L 365 85 L 335 85 Z" fill="url(#grad1)"/>
</svg>

