<svg width="800" height="600" viewBox="0 0 800 600" xmlns="http://www.w3.org/2000/svg">
  <!-- Background -->
  <rect width="800" height="600" fill="#ffffff"/>
  
  <!-- Browser Chrome -->
  <rect width="800" height="50" fill="#1f2937"/>
  <circle cx="20" cy="25" r="6" fill="#ef4444"/>
  <circle cx="45" cy="25" r="6" fill="#f59e0b"/>
  <circle cx="70" cy="25" r="6" fill="#10b981"/>
  
  <!-- Navigation -->
  <rect y="50" width="800" height="70" fill="white"/>
  <text x="50" y="90" font-size="20" font-weight="bold" fill="#1f2937">ENTREPRISE</text>
  <text x="550" y="90" font-size="14" fill="#6b7280">Accueil</text>
  <text x="630" y="90" font-size="14" fill="#6b7280">Services</text>
  <text x="710" y="90" font-size="14" fill="#7c3aed" font-weight="bold">Contact</text>
  
  <!-- Hero Section -->
  <defs>
    <linearGradient id="heroGrad" x1="0%" y1="0%" x2="100%" y2="0%">
      <stop offset="0%" style="stop-color:#7c3aed"/>
      <stop offset="100%" style="stop-color:#a855f7"/>
    </linearGradient>
  </defs>
  <rect y="120" width="800" height="250" fill="url(#heroGrad)"/>
  
  <!-- Hero Content -->
  <text x="80" y="200" font-size="42" font-weight="bold" fill="white">Donnez vie à vos projets</text>
  <text x="80" y="240" font-size="18" fill="#f3e8ff">Solutions innovantes pour votre entreprise</text>
  <rect x="80" y="260" width="180" height="45" rx="8" fill="white"/>
  <text x="170" y="288" font-size="15" font-weight="bold" fill="#7c3aed" text-anchor="middle">Découvrir</text>
  
  <!-- Image Placeholder -->
  <rect x="480" y="160" width="280" height="180" rx="12" fill="white" opacity="0.2"/>
  <circle cx="620" cy="250" r="40" fill="white" opacity="0.3"/>
  
  <!-- Services Section -->
  <text x="400" y="410" font-size="28" font-weight="bold" fill="#1f2937" text-anchor="middle">Nos Services</text>
  
  <!-- Service Cards -->
  <rect x="60" y="440" width="210" height="130" rx="10" fill="white" stroke="#e5e7eb" stroke-width="2"/>
  <circle cx="165" cy="475" r="20" fill="#ddd6fe"/>
  <text x="165" y="513" font-size="15" font-weight="bold" fill="#1f2937" text-anchor="middle">Consultation</text>
  <text x="165" y="535" font-size="11" fill="#6b7280" text-anchor="middle">Expert à votre service</text>
  
  <rect x="295" y="440" width="210" height="130" rx="10" fill="white" stroke="#e5e7eb" stroke-width="2"/>
  <circle cx="400" cy="475" r="20" fill="#ddd6fe"/>
  <text x="400" y="513" font-size="15" font-weight="bold" fill="#1f2937" text-anchor="middle">Développement</text>
  <text x="400" y="535" font-size="11" fill="#6b7280" text-anchor="middle">Solutions sur mesure</text>
  
  <rect x="530" y="440" width="210" height="130" rx="10" fill="white" stroke="#e5e7eb" stroke-width="2"/>
  <circle cx="635" cy="475" r="20" fill="#ddd6fe"/>
  <text x="635" y="513" font-size="15" font-weight="bold" fill="#1f2937" text-anchor="middle">Support</text>
  <text x="635" y="535" font-size="11" fill="#6b7280" text-anchor="middle">Accompagnement 24/7</text>
</svg>

