<svg width="800" height="600" viewBox="0 0 800 600" xmlns="http://www.w3.org/2000/svg">
  <!-- Background -->
  <rect width="800" height="600" fill="#fdf2f8"/>
  
  <!-- Browser Chrome -->
  <rect width="800" height="50" fill="#1f2937"/>
  <circle cx="20" cy="25" r="6" fill="#ef4444"/>
  <circle cx="45" cy="25" r="6" fill="#f59e0b"/>
  <circle cx="70" cy="25" r="6" fill="#10b981"/>
  
  <!-- Header -->
  <rect y="50" width="800" height="80" fill="white"/>
  <text x="50" y="95" font-size="22" font-weight="bold" fill="#ec4899">GLOWBEAUTY</text>
  <text x="520" y="95" font-size="14" fill="#6b7280">Shop</text>
  <text x="580" y="95" font-size="14" fill="#6b7280">About</text>
  <text x="650" y="95" font-size="14" fill="#6b7280">Blog</text>
  <circle cx="750" cy="90" r="18" fill="#ec4899"/>
  
  <!-- Promo Banner -->
  <rect y="130" width="800" height="50" fill="#fce7f3"/>
  <text x="400" y="160" font-size="14" fill="#be185d" text-anchor="middle">🎁 LIVRAISON GRATUITE dès 50€ d'achat</text>
  
  <!-- Hero Section -->
  <rect y="180" width="380" height="280" fill="#fff1f2"/>
  <text x="50" y="240" font-size="32" font-weight="bold" fill="#1f2937">Cosmétiques</text>
  <text x="50" y="275" font-size="32" font-weight="bold" fill="#ec4899">Bio & Naturels</text>
  <text x="50" y="310" font-size="14" fill="#6b7280">Prenez soin de votre peau avec nos</text>
  <text x="50" y="330" font-size="14" fill="#6b7280">produits 100% naturels</text>
  
  <rect x="50" y="350" width="160" height="45" rx="25" fill="#ec4899"/>
  <text x="130" y="378" font-size="15" font-weight="bold" fill="white" text-anchor="middle">Je découvre</text>
  
  <text x="50" y="420" font-size="12" fill="#9ca3af">⭐⭐⭐⭐⭐ 4.9/5 (1,240 avis)</text>
  
  <!-- Product Image -->
  <rect x="420" y="200" width="340" height="240" rx="12" fill="#fce7f3"/>
  <circle cx="590" cy="320" r="60" fill="#fbcfe8"/>
  <circle cx="590" cy="320" r="45" fill="white"/>
  <text x="590" y="330" font-size="40" text-anchor="middle">💄</text>
  
  <!-- Popular Products -->
  <text x="50" y="500" font-size="20" font-weight="bold" fill="#1f2937">Produits populaires</text>
  
  <!-- Mini Product Cards -->
  <rect x="50" y="520" width="120" height="70" rx="8" fill="white" stroke="#fce7f3" stroke-width="2"/>
  <text x="110" y="545" font-size="11" fill="#6b7280" text-anchor="middle">Sérum visage</text>
  <text x="110" y="565" font-size="13" font-weight="bold" fill="#ec4899" text-anchor="middle">€32</text>
  
  <rect x="185" y="520" width="120" height="70" rx="8" fill="white" stroke="#fce7f3" stroke-width="2"/>
  <text x="245" y="545" font-size="11" fill="#6b7280" text-anchor="middle">Crème hydratante</text>
  <text x="245" y="565" font-size="13" font-weight="bold" fill="#ec4899" text-anchor="middle">€28</text>
  
  <rect x="320" y="520" width="120" height="70" rx="8" fill="white" stroke="#fce7f3" stroke-width="2"/>
  <text x="380" y="545" font-size="11" fill="#6b7280" text-anchor="middle">Masque</text>
  <text x="380" y="565" font-size="13" font-weight="bold" fill="#ec4899" text-anchor="middle">€24</text>
</svg>

